<svg width="76" height="30" viewBox="0 0 76 30" fill="none" xmlns="http://www.w3.org/2000/svg">
<g style="mix-blend-mode:luminosity">
<path d="M10.63 26.42C9.09 26.42 7.72 26.03 6.52 25.25C5.32 24.49 4.3 23.47 3.46 22.19C2.64 20.91 2.01 19.49 1.57 17.93C1.15 16.35 0.94 14.76 0.94 13.16C0.94 11.76 1.11 10.41 1.45 9.11C1.79 7.81 2.32 6.65 3.04 5.63C3.76 4.59 4.66 3.77 5.74 3.17C6.84 2.57 8.14 2.27 9.64 2.27C11.08 2.27 12.25 2.53 13.15 3.05C14.07 3.57 14.75 4.24 15.19 5.06C15.63 5.88 15.85 6.74 15.85 7.64C15.85 8.54 15.64 9.42 15.22 10.28C14.8 11.12 14.19 11.82 13.39 12.38C12.61 12.92 11.65 13.21 10.51 13.25C10.33 13.25 10.24 13.21 10.24 13.13C10.24 12.97 10.43 12.87 10.81 12.83C11.63 12.81 12.33 12.57 12.91 12.11C13.49 11.63 13.93 11.03 14.23 10.31C14.53 9.57 14.68 8.8 14.68 8C14.68 7.14 14.49 6.31 14.11 5.51C13.75 4.71 13.18 4.05 12.4 3.53C11.62 3.01 10.62 2.75 9.4 2.75C8.18 2.75 7.13 3.02 6.25 3.56C5.37 4.1 4.64 4.84 4.06 5.78C3.5 6.7 3.08 7.75 2.8 8.93C2.52 10.11 2.38 11.35 2.38 12.65C2.38 14.23 2.57 15.8 2.95 17.36C3.35 18.92 3.92 20.35 4.66 21.65C5.4 22.93 6.3 23.95 7.36 24.71C8.42 25.49 9.63 25.88 10.99 25.88C11.91 25.88 12.76 25.67 13.54 25.25C14.32 24.85 14.95 24.23 15.43 23.39C15.93 22.57 16.18 21.54 16.18 20.3C16.18 19.86 16.15 19.4 16.09 18.92C16.03 18.44 15.92 17.93 15.76 17.39C15.74 17.33 15.73 17.26 15.73 17.18C15.73 17.04 15.77 16.97 15.85 16.97C15.95 16.97 16.04 17.07 16.12 17.27C16.5 18.41 16.69 19.48 16.69 20.48C16.69 21.66 16.44 22.69 15.94 23.57C15.44 24.47 14.74 25.17 13.84 25.67C12.94 26.17 11.87 26.42 10.63 26.42ZM14.9547 29.87C14.5147 29.89 14.1747 29.81 13.9347 29.63C13.6747 29.45 13.5847 29.11 13.6647 28.61C13.6647 28.55 13.6847 28.46 13.7247 28.34C13.7647 28.22 13.8147 28.14 13.8747 28.1C13.8547 28.6 13.9147 28.95 14.0547 29.15C14.1947 29.35 14.4247 29.45 14.7447 29.45C15.5247 29.45 16.3247 29.2 17.1447 28.7C17.9847 28.2 18.8147 27.53 19.6347 26.69C19.4347 26.63 19.1747 26.51 18.8547 26.33C18.5547 26.17 18.3247 26.04 18.1647 25.94C17.3647 25.36 16.9647 24.69 16.9647 23.93C16.9647 23.35 17.2247 22.72 17.7447 22.04C18.2647 21.36 19.1147 20.67 20.2947 19.97C21.0547 19.51 21.9347 19.1 22.9347 18.74C23.9347 18.38 24.8647 18.09 25.7247 17.87C26.0247 17.29 26.3147 16.72 26.5947 16.16C26.8747 15.6 27.1447 15.04 27.4047 14.48C27.5047 14.26 27.6847 13.84 27.9447 13.22C28.2047 12.6 28.4947 11.87 28.8147 11.03C29.1347 10.19 29.4347 9.3 29.7147 8.36C30.0147 7.4 30.2647 6.47 30.4647 5.57C30.6647 4.67 30.7647 3.87 30.7647 3.17C30.7647 2.49 30.6447 1.96 30.4047 1.58C30.1847 1.2 29.7847 1.01 29.2047 1.01H29.1747C29.0147 1.01 28.9347 0.959999 28.9347 0.859999C28.9347 0.759999 29.0347 0.689999 29.2347 0.649998C30.1947 0.549998 30.8647 0.779998 31.2447 1.34C31.6247 1.9 31.8147 2.64 31.8147 3.56C31.8147 3.72 31.8047 3.89 31.7847 4.07C31.7847 4.25 31.7747 4.44 31.7547 4.64C31.8747 4.74 31.9547 4.91 31.9947 5.15C32.1147 5.79 32.2347 6.63 32.3547 7.67C32.4947 8.71 32.6547 9.85 32.8347 11.09C33.0147 12.33 33.2247 13.59 33.4647 14.87C33.7247 16.13 34.0247 17.32 34.3647 18.44C34.7247 19.54 35.1447 20.47 35.6247 21.23C35.7247 21.39 35.8647 21.6 36.0447 21.86C36.2247 22.1 36.4447 22.32 36.7047 22.52C36.9647 22.72 37.2547 22.82 37.5747 22.82C37.9147 22.82 38.2647 22.68 38.6247 22.4C38.9447 22.14 39.2447 21.78 39.5247 21.32C39.8047 20.86 40.0647 20.37 40.3047 19.85C40.4247 19.63 40.5347 19.52 40.6347 19.52C40.7347 19.52 40.8047 19.58 40.8447 19.7C40.9047 19.8 40.9247 19.9 40.9047 20C40.8247 20.26 40.6547 20.57 40.3947 20.93C40.1547 21.27 39.9047 21.59 39.6447 21.89C39.3847 22.17 39.1747 22.37 39.0147 22.49C38.6547 22.77 38.3047 22.97 37.9647 23.09C37.6447 23.23 37.3447 23.3 37.0647 23.3C36.4047 23.3 35.8247 23.05 35.3247 22.55C34.8447 22.03 34.4247 21.49 34.0647 20.93C33.5647 20.13 33.1647 19.12 32.8647 17.9C32.5847 16.68 32.3647 15.36 32.2047 13.94C32.0447 12.52 31.9147 11.12 31.8147 9.74C31.7347 8.36 31.6447 7.1 31.5447 5.96C31.3047 7.08 30.9747 8.23 30.5547 9.41C30.1347 10.59 29.7047 11.68 29.2647 12.68C28.8447 13.66 28.4947 14.42 28.2147 14.96C27.7747 15.86 27.2947 16.76 26.7747 17.66C27.6947 17.44 28.6547 17.24 29.6547 17.06C30.6547 16.88 31.5347 16.71 32.2947 16.55H32.3847C32.4647 16.55 32.5047 16.58 32.5047 16.64C32.5047 16.7 32.4547 16.78 32.3547 16.88C32.2547 16.98 32.1247 17.05 31.9647 17.09C31.1047 17.25 30.1747 17.44 29.1747 17.66C28.1747 17.86 27.2347 18.08 26.3547 18.32C25.4347 19.9 24.5047 21.4 23.5647 22.82C22.6247 24.24 21.5947 25.5 20.4747 26.6C21.2347 26.84 22.2047 26.96 23.3847 26.96H23.4447C23.6047 26.96 23.6847 27 23.6847 27.08C23.6847 27.2 23.5647 27.26 23.3247 27.26C22.7647 27.28 22.2147 27.25 21.6747 27.17C21.1347 27.11 20.6347 27.01 20.1747 26.87C19.2947 27.73 18.4047 28.42 17.5047 28.94C16.6247 29.48 15.7747 29.79 14.9547 29.87ZM19.9347 26.39C20.8947 25.39 21.8247 24.22 22.7247 22.88C23.6447 21.54 24.5047 20.14 25.3047 18.68C25.0447 18.76 24.7747 18.85 24.4947 18.95C24.2147 19.05 23.9447 19.17 23.6847 19.31C23.3447 19.47 22.8847 19.7 22.3047 20C21.7247 20.3 21.1447 20.62 20.5647 20.96C20.0047 21.28 19.5747 21.57 19.2747 21.83C18.8747 22.19 18.5847 22.54 18.4047 22.88C18.2247 23.22 18.1347 23.55 18.1347 23.87C18.1347 24.15 18.1847 24.42 18.2847 24.68C18.4047 24.94 18.5447 25.19 18.7047 25.43C18.8047 25.55 18.9847 25.71 19.2447 25.91C19.5247 26.13 19.7547 26.29 19.9347 26.39ZM47.4419 27.92C46.8019 27.92 46.1419 27.73 45.4619 27.35C44.8019 26.97 44.1519 26.36 43.5119 25.52C43.0119 24.84 42.6419 24.05 42.4019 23.15C42.1619 22.27 42.0419 21.4 42.0419 20.54C42.0419 20.1 42.0719 19.67 42.1319 19.25C42.1919 18.79 42.3119 18.27 42.4919 17.69C42.6919 17.11 42.8919 16.63 43.0919 16.25C43.1519 16.13 43.2419 16 43.3619 15.86C43.4819 15.72 43.5719 15.65 43.6319 15.65C43.6519 15.65 43.6619 15.66 43.6619 15.68C43.6619 15.7 43.5719 15.91 43.3919 16.31C42.8919 17.31 42.6419 18.42 42.6419 19.64C42.6419 20.74 42.8119 21.82 43.1519 22.88C43.5119 23.92 43.9719 24.82 44.5319 25.58C45.0719 26.3 45.6019 26.82 46.1219 27.14C46.6419 27.46 47.1519 27.62 47.6519 27.62C48.3719 27.62 49.0419 27.32 49.6619 26.72C50.2819 26.14 50.8019 25.39 51.2219 24.47C51.5219 23.85 51.7719 23.04 51.9719 22.04C52.1719 21.02 52.3319 19.88 52.4519 18.62C52.5719 17.36 52.6219 16.07 52.6019 14.75V14.48C51.9019 14.78 51.2219 15.14 50.5619 15.56C49.9219 15.96 49.3019 16.41 48.7019 16.91C48.6419 16.97 48.5819 17 48.5219 17C48.4019 17 48.3019 16.93 48.2219 16.79C48.1419 16.63 48.1019 16.48 48.1019 16.34C48.1019 16.1 48.1719 15.94 48.3119 15.86C48.9919 15.34 49.6819 14.91 50.3819 14.57C51.1019 14.23 51.8419 13.96 52.6019 13.76C52.5819 12.46 52.4619 11.19 52.2419 9.95C52.0419 8.71 51.7719 7.56 51.4319 6.5C51.1119 5.44 50.7519 4.54 50.3519 3.8L50.3219 3.77C48.9819 3.79 47.6819 3.93 46.4219 4.19C45.1819 4.43 44.0719 4.8 43.0919 5.3C42.1119 5.78 41.3319 6.4 40.7519 7.16C40.1919 7.9 39.9119 8.79 39.9119 9.83C39.9119 10.27 39.9519 10.68 40.0319 11.06C40.1319 11.42 40.2919 11.73 40.5119 11.99C40.6319 12.11 40.6919 12.22 40.6919 12.32C40.6919 12.44 40.6319 12.5 40.5119 12.5C40.3919 12.5 40.2719 12.43 40.1519 12.29C39.8119 11.89 39.5919 11.45 39.4919 10.97C39.3719 10.49 39.3119 10.01 39.3119 9.53C39.3119 8.55 39.5319 7.69 39.9719 6.95C40.4319 6.21 41.0319 5.58 41.7719 5.06C42.5319 4.52 43.3619 4.09 44.2619 3.77C45.1619 3.43 46.0719 3.17 46.9919 2.99C47.9319 2.81 48.7919 2.71 49.5719 2.69C49.2919 2.37 49.0319 2.18 48.7919 2.12C48.5719 2.04 48.3719 2.01 48.1919 2.03C48.0319 2.03 47.8919 1.99 47.7719 1.91C47.6919 1.85 47.6519 1.78 47.6519 1.7C47.6519 1.5 47.9119 1.4 48.4319 1.4C48.8119 1.4 49.2419 1.5 49.7219 1.7C50.2219 1.88 50.6719 2.21 51.0719 2.69C51.9919 2.71 53.0219 2.8 54.1619 2.96C55.3019 3.12 56.4219 3.38 57.5219 3.74C58.6219 4.1 59.5819 4.59 60.4019 5.21C61.2219 5.81 61.7619 6.58 62.0219 7.52C62.0419 7.58 62.0519 7.67 62.0519 7.79C62.0519 7.97 62.0019 8.06 61.9019 8.06C61.8019 8.06 61.7019 7.94 61.6019 7.7C61.3819 6.9 60.7919 6.22 59.8319 5.66C58.8719 5.1 57.6819 4.66 56.2619 4.34C54.8619 4 53.3719 3.81 51.7919 3.77C52.2119 4.57 52.5419 5.51 52.7819 6.59C53.0419 7.67 53.2319 8.81 53.3519 10.01C53.4919 11.19 53.5819 12.36 53.6219 13.52C54.2019 13.4 54.7919 13.32 55.3919 13.28C55.9919 13.22 56.6019 13.19 57.2219 13.19C57.3819 13.19 57.5219 13.22 57.6419 13.28C57.7619 13.32 57.8219 13.36 57.8219 13.4C57.8219 13.52 57.5719 13.58 57.0719 13.58C55.8919 13.58 54.7419 13.75 53.6219 14.09C53.6219 14.29 53.6219 14.5 53.6219 14.72C53.6419 14.94 53.6519 15.15 53.6519 15.35C53.6519 16.27 53.6219 17.11 53.5619 17.87C53.5219 18.61 53.4819 19.21 53.4419 19.67C53.2819 21.15 52.9119 22.52 52.3319 23.78C51.7519 25.04 51.0319 26.04 50.1719 26.78C49.3319 27.54 48.4219 27.92 47.4419 27.92ZM65.3249 24.98C64.0649 24.98 62.8849 24.72 61.7849 24.2C60.6849 23.68 59.7949 22.84 59.1149 21.68C58.4549 20.52 58.1249 18.99 58.1249 17.09C58.1249 16.67 58.1349 16.24 58.1549 15.8C58.1949 15.34 58.2549 14.87 58.3349 14.39C58.1949 14.37 58.0549 14.37 57.9149 14.39C57.7749 14.39 57.6549 14.39 57.5549 14.39C57.3749 14.39 57.2349 14.35 57.1349 14.27C57.0349 14.19 56.9749 14.02 56.9549 13.76C56.9549 13.48 57.0149 13.22 57.1349 12.98C57.2749 12.74 57.4149 12.7 57.5549 12.86C57.7749 13.04 58.1749 13.15 58.7549 13.19C59.1549 11.79 59.7549 10.5 60.5549 9.32C61.3749 8.14 62.3049 7.08 63.3449 6.14C64.4049 5.18 65.4949 4.37 66.6149 3.71C67.7549 3.03 68.8449 2.52 69.8849 2.18C70.9249 1.82 71.8449 1.64 72.6449 1.64C73.3249 1.64 73.8649 1.78 74.2649 2.06C74.6849 2.34 74.8949 2.78 74.8949 3.38C74.8949 3.64 74.8549 3.9 74.7749 4.16C74.6149 4.84 74.3549 5.38 73.9949 5.78C73.6549 6.18 73.4049 6.38 73.2449 6.38C73.1449 6.38 73.0949 6.33 73.0949 6.23C73.0949 6.13 73.1749 5.92 73.3349 5.6C73.6349 5.06 73.7849 4.59 73.7849 4.19C73.7849 3.69 73.5849 3.32 73.1849 3.08C72.7849 2.82 72.2549 2.69 71.5949 2.69C70.7549 2.69 69.7849 2.9 68.6849 3.32C67.5849 3.74 66.4649 4.38 65.3249 5.24C64.1849 6.08 63.1349 7.16 62.1749 8.48C61.2349 9.78 60.5049 11.33 59.9849 13.13C60.3649 13.09 60.7549 13.05 61.1549 13.01C61.5549 12.95 61.9149 12.88 62.2349 12.8C64.8749 12.22 66.8649 11.81 68.2049 11.57C69.5649 11.31 70.4149 11.18 70.7549 11.18C71.0549 11.18 71.0349 11.25 70.6949 11.39C70.3549 11.53 69.7749 11.73 68.9549 11.99C68.1549 12.23 67.1749 12.5 66.0149 12.8C64.8549 13.08 63.5949 13.37 62.2349 13.67C61.8949 13.75 61.4949 13.85 61.0349 13.97C60.5949 14.09 60.1449 14.2 59.6849 14.3C59.5649 15.16 59.5049 15.97 59.5049 16.73C59.5049 18.53 59.8049 19.99 60.4049 21.11C61.0049 22.21 61.7949 23.01 62.7749 23.51C63.7549 24.03 64.8149 24.29 65.9549 24.29C67.1149 24.29 68.2649 24.06 69.4049 23.6C70.5649 23.14 71.6149 22.5 72.5549 21.68C73.4949 20.84 74.2049 19.87 74.6849 18.77C74.8649 18.39 75.0249 18.2 75.1649 18.2C75.2649 18.2 75.3149 18.28 75.3149 18.44C75.3149 18.54 75.2849 18.68 75.2249 18.86C74.9249 19.74 74.4349 20.56 73.7549 21.32C73.0749 22.06 72.2749 22.7 71.3549 23.24C70.4349 23.8 69.4549 24.23 68.4149 24.53C67.3749 24.83 66.3449 24.98 65.3249 24.98Z" fill="black"/>
</g>
</svg>
