<svg width="24" height="24" viewBox="0 0 24 24" fill="none" xmlns="http://www.w3.org/2000/svg">
<path fill-rule="evenodd" clip-rule="evenodd" d="M19.5 6.75C19.5 6.33579 19.1642 6 18.75 6H4.75C4.33579 6 4 6.33579 4 6.75C4 7.16421 4.33579 7.5 4.75 7.5H18.75C19.1642 7.5 19.5 7.16421 19.5 6.75Z" fill="white"/>
<path fill-rule="evenodd" clip-rule="evenodd" d="M19.5 16.75C19.5 16.3358 19.1642 16 18.75 16H4.75C4.33579 16 4 16.3358 4 16.75C4 17.1642 4.33579 17.5 4.75 17.5H18.75C19.1642 17.5 19.5 17.1642 19.5 16.75Z" fill="white"/>
<path fill-rule="evenodd" clip-rule="evenodd" d="M19.5 11.75C19.5 11.3358 19.1642 11 18.75 11H4.75C4.33579 11 4 11.3358 4 11.75C4 12.1642 4.33579 12.5 4.75 12.5H18.75C19.1642 12.5 19.5 12.1642 19.5 11.75Z" fill="white"/>
</svg>
