<svg width="45" height="36" viewBox="0 0 45 36" fill="none" xmlns="http://www.w3.org/2000/svg">
<path d="M24.9376 0.936916C25.5377 0.337009 26.3515 0 27.2 0C28.0485 0 28.8623 0.337009 29.4624 0.936916L43.8624 15.3369C44.4623 15.937 44.7993 16.7508 44.7993 17.5993C44.7993 18.4478 44.4623 19.2616 43.8624 19.8617L29.4624 34.2617C28.8589 34.8446 28.0505 35.1672 27.2115 35.1599C26.3725 35.1526 25.5699 34.816 24.9766 34.2227C24.3833 33.6294 24.0467 32.8268 24.0394 31.9878C24.0322 31.1488 24.3547 30.3404 24.9376 29.7369L33.6 20.7993H3.2C2.35131 20.7993 1.53737 20.4622 0.937258 19.8621C0.337142 19.2619 0 18.448 0 17.5993C0 16.7506 0.337142 15.9367 0.937258 15.3366C1.53737 14.7365 2.35131 14.3993 3.2 14.3993H33.6L24.9376 5.46172C24.3377 4.86163 24.0007 4.04784 24.0007 3.19932C24.0007 2.35079 24.3377 1.537 24.9376 0.936916Z" fill="#FCEAEA"/>
</svg>
