<svg width="41" height="35" viewBox="0 0 41 35" fill="none" xmlns="http://www.w3.org/2000/svg">
<path d="M18.1773 0.932653C17.6281 0.335475 16.8833 0 16.1068 0C15.3302 0 14.5854 0.335475 14.0362 0.932653L0.85746 15.2671C0.30843 15.8645 0 16.6746 0 17.5192C0 18.3639 0.30843 19.174 0.85746 19.7713L14.0362 34.1058C14.5886 34.6861 15.3284 35.0071 16.0962 34.9999C16.8641 34.9926 17.5986 34.6576 18.1416 34.067C18.6846 33.4764 18.9926 32.6775 18.9993 31.8422C19.006 31.007 18.7108 30.2024 18.1773 29.6016L10.2495 20.7047H38.0714C38.8481 20.7047 39.593 20.3691 40.1422 19.7717C40.6915 19.1743 41 18.3641 41 17.5192C41 16.6744 40.6915 15.8642 40.1422 15.2668C39.593 14.6694 38.8481 14.3338 38.0714 14.3338H10.2495L18.1773 5.43686C18.7263 4.83951 19.0348 4.02942 19.0348 3.18476C19.0348 2.34009 18.7263 1.53001 18.1773 0.932653Z" fill="#FCEAEA"/>
</svg>
