<svg width="135" height="16" viewBox="0 0 135 16" fill="none" xmlns="http://www.w3.org/2000/svg">
<path d="M8.71591 4.09091C8.63068 3.37121 8.28504 2.8125 7.67898 2.41477C7.07292 2.01705 6.32955 1.81818 5.44886 1.81818C4.80492 1.81818 4.24148 1.92235 3.75852 2.13068C3.2803 2.33901 2.90625 2.62547 2.63636 2.99006C2.37121 3.35464 2.23864 3.76894 2.23864 4.23295C2.23864 4.62121 2.33097 4.95502 2.51562 5.23438C2.70502 5.509 2.9465 5.73864 3.24006 5.9233C3.53362 6.10322 3.84138 6.25237 4.16335 6.37074C4.48532 6.48437 4.78125 6.5767 5.05114 6.64773L6.52841 7.04545C6.9072 7.14489 7.3286 7.2822 7.79261 7.45739C8.26136 7.63258 8.70881 7.87169 9.13494 8.17472C9.56581 8.47301 9.92093 8.85653 10.2003 9.32528C10.4796 9.79403 10.6193 10.3693 10.6193 11.0511C10.6193 11.8371 10.4134 12.5473 10.0014 13.1818C9.59422 13.8163 8.99763 14.3205 8.21165 14.6946C7.4304 15.0687 6.48106 15.2557 5.36364 15.2557C4.32197 15.2557 3.41998 15.0876 2.65767 14.7514C1.90009 14.4152 1.3035 13.9465 0.867898 13.3452C0.437027 12.7438 0.193182 12.0455 0.136364 11.25H1.95455C2.00189 11.7992 2.18655 12.2538 2.50852 12.6136C2.83523 12.9687 3.24716 13.2339 3.74432 13.4091C4.24621 13.5795 4.78598 13.6648 5.36364 13.6648C6.03598 13.6648 6.63968 13.5559 7.17472 13.3381C7.70975 13.1155 8.13352 12.8078 8.44602 12.4148C8.75852 12.017 8.91477 11.553 8.91477 11.0227C8.91477 10.5398 8.77983 10.1468 8.50994 9.84375C8.24006 9.54072 7.88494 9.29451 7.4446 9.10511C7.00426 8.91572 6.52841 8.75 6.01705 8.60795L4.22727 8.09659C3.09091 7.76989 2.19129 7.3035 1.52841 6.69744C0.86553 6.09138 0.534091 5.2983 0.534091 4.31818C0.534091 3.50379 0.754261 2.79356 1.1946 2.1875C1.63968 1.5767 2.23627 1.10322 2.98438 0.767045C3.73722 0.426136 4.57765 0.255681 5.50568 0.255681C6.44318 0.255681 7.27652 0.423768 8.00568 0.759943C8.73485 1.09138 9.3125 1.54593 9.73864 2.12358C10.1695 2.70123 10.3968 3.35701 10.4205 4.09091H8.71591ZM34.3107 0.454545H36.0721V10.0852C36.0721 11.0795 35.8377 11.9673 35.369 12.7486C34.9049 13.5251 34.2492 14.1383 33.4016 14.5881C32.5541 15.0331 31.5598 15.2557 30.4187 15.2557C29.2776 15.2557 28.2833 15.0331 27.4357 14.5881C26.5882 14.1383 25.93 13.5251 25.4613 12.7486C24.9973 11.9673 24.7653 11.0795 24.7653 10.0852V0.454545H26.5266V9.94318C26.5266 10.6534 26.6829 11.2855 26.9954 11.8395C27.3079 12.3887 27.753 12.822 28.3306 13.1392C28.913 13.4517 29.609 13.608 30.4187 13.608C31.2283 13.608 31.9244 13.4517 32.5067 13.1392C33.0891 12.822 33.5342 12.3887 33.842 11.8395C34.1545 11.2855 34.3107 10.6534 34.3107 9.94318V0.454545ZM62.3736 0.454545V15H60.669L52.7429 3.57955H52.6009V15H50.8395V0.454545H52.544L60.4986 11.9034H60.6406V0.454545H62.3736ZM85.1026 4.09091C85.0174 3.37121 84.6718 2.8125 84.0657 2.41477C83.4596 2.01705 82.7163 1.81818 81.8356 1.81818C81.1916 1.81818 80.6282 1.92235 80.1452 2.13068C79.667 2.33901 79.293 2.62547 79.0231 2.99006C78.7579 3.35464 78.6254 3.76894 78.6254 4.23295C78.6254 4.62121 78.7177 4.95502 78.9023 5.23438C79.0917 5.509 79.3332 5.73864 79.6268 5.9233C79.9203 6.10322 80.2281 6.25237 80.5501 6.37074C80.872 6.48437 81.168 6.5767 81.4379 6.64773L82.9151 7.04545C83.2939 7.14489 83.7153 7.2822 84.1793 7.45739C84.6481 7.63258 85.0955 7.87169 85.5217 8.17472C85.9525 8.47301 86.3076 8.85653 86.587 9.32528C86.8664 9.79403 87.006 10.3693 87.006 11.0511C87.006 11.8371 86.8001 12.5473 86.3881 13.1818C85.9809 13.8163 85.3844 14.3205 84.5984 14.6946C83.8171 15.0687 82.8678 15.2557 81.7504 15.2557C80.7087 15.2557 79.8067 15.0876 79.0444 14.7514C78.2868 14.4152 77.6902 13.9465 77.2546 13.3452C76.8237 12.7438 76.5799 12.0455 76.5231 11.25H78.3413C78.3886 11.7992 78.5733 12.2538 78.8952 12.6136C79.2219 12.9687 79.6339 13.2339 80.131 13.4091C80.6329 13.5795 81.1727 13.6648 81.7504 13.6648C82.4227 13.6648 83.0264 13.5559 83.5614 13.3381C84.0965 13.1155 84.5202 12.8078 84.8327 12.4148C85.1452 12.017 85.3015 11.553 85.3015 11.0227C85.3015 10.5398 85.1665 10.1468 84.8967 9.84375C84.6268 9.54072 84.2717 9.29451 83.8313 9.10511C83.391 8.91572 82.9151 8.75 82.4038 8.60795L80.614 8.09659C79.4776 7.76989 78.578 7.3035 77.9151 6.69744C77.2522 6.09138 76.9208 5.2983 76.9208 4.31818C76.9208 3.50379 77.141 2.79356 77.5813 2.1875C78.0264 1.5767 78.623 1.10322 79.3711 0.767045C80.1239 0.426136 80.9644 0.255681 81.8924 0.255681C82.8299 0.255681 83.6632 0.423768 84.3924 0.759943C85.1216 1.09138 85.6992 1.54593 86.1254 2.12358C86.5562 2.70123 86.7835 3.35701 86.8072 4.09091H85.1026ZM101.152 15V0.454545H109.93V2.01705H102.913V6.93182H109.476V8.49432H102.913V13.4375H110.044V15H101.152ZM123.56 2.01705V0.454545H134.469V2.01705H129.895V15H128.134V2.01705H123.56Z" fill="#DA8F70"/>
</svg>
