<svg width="28" height="29" viewBox="0 0 28 29" fill="none" xmlns="http://www.w3.org/2000/svg">
<mask id="path-1-inside-1_804_3655" fill="white">
<path d="M28 16.24H16V28.42H12V16.24H0V12.18H12V0H16V12.18H28V16.24Z"/>
</mask>
<path d="M28 16.24H16V28.42H12V16.24H0V12.18H12V0H16V12.18H28V16.24Z" fill="#F9E5E5"/>
<path d="M28 16.24V22.24H34V16.24H28ZM16 16.24V10.24H10V16.24H16ZM16 28.42V34.42H22V28.42H16ZM12 28.42H6V34.42H12V28.42ZM12 16.24H18V10.24H12V16.24ZM0 16.24H-6V22.24H0V16.24ZM0 12.18V6.18H-6V12.18H0ZM12 12.18V18.18H18V12.18H12ZM12 0V-6H6V0H12ZM16 0H22V-6H16V0ZM16 12.18H10V18.18H16V12.18ZM28 12.18H34V6.18H28V12.18ZM28 10.24H16V22.24H28V10.24ZM10 16.24V28.42H22V16.24H10ZM16 22.42H12V34.42H16V22.42ZM18 28.42V16.24H6V28.42H18ZM12 10.24H0V22.24H12V10.24ZM6 16.24V12.18H-6V16.24H6ZM0 18.18H12V6.18H0V18.18ZM18 12.18V0H6V12.18H18ZM12 6H16V-6H12V6ZM10 0V12.18H22V0H10ZM16 18.18H28V6.18H16V18.18ZM22 12.18V16.24H34V12.18H22Z" fill="#F6E6E6" mask="url(#path-1-inside-1_804_3655)"/>
</svg>
